<?xml version="1.0" encoding="UTF-8"?>
<svg width="1832px" height="60px" viewBox="0 0 1832 60" version="1.1" xmlns="http://www.w3.org/2000/svg" xmlns:xlink="http://www.w3.org/1999/xlink">
    <!-- Generator: Sketch 60.1 (88133) - https://sketch.com -->
    <title>montains</title>
    <desc>Created with Sketch.</desc>
    <defs>
        <linearGradient x1="57.174066%" y1="50%" x2="59.325439%" y2="46.2459322%" id="linearGradient-1">
            <stop stop-color="#5EB2FC" offset="0%"></stop>
            <stop stop-color="#92CDFA" offset="100%"></stop>
        </linearGradient>
        <linearGradient x1="27.8666137%" y1="47.0122857%" x2="68.4884599%" y2="48.2605021%" id="linearGradient-2">
            <stop stop-color="#C7EBFF" offset="0%"></stop>
            <stop stop-color="#92CDFA" offset="100%"></stop>
        </linearGradient>
        <linearGradient x1="50%" y1="42.1148677%" x2="49.4482857%" y2="52.264272%" id="linearGradient-3">
            <stop stop-color="#92CDFA" offset="0%"></stop>
            <stop stop-color="#5EB2FC" offset="100%"></stop>
            <stop stop-color="#5EB2FC" offset="100%"></stop>
        </linearGradient>
        <linearGradient x1="50%" y1="0%" x2="50%" y2="100%" id="linearGradient-4">
            <stop stop-color="#5EB2FC" offset="0%"></stop>
            <stop stop-color="#92CDFA" offset="100%"></stop>
        </linearGradient>
        <linearGradient x1="53.0516022%" y1="42.3722309%" x2="50%" y2="53.2559007%" id="linearGradient-5">
            <stop stop-color="#C7EBFF" offset="0%"></stop>
            <stop stop-color="#92CDFA" offset="100%"></stop>
        </linearGradient>
        <linearGradient x1="-9.45965783%" y1="40.885646%" x2="105.896807%" y2="50%" id="linearGradient-6">
            <stop stop-color="#C7EBFF" offset="0%"></stop>
            <stop stop-color="#92CDFA" offset="100%"></stop>
        </linearGradient>
        <linearGradient x1="50%" y1="-40.8366596%" x2="50%" y2="79.9494077%" id="linearGradient-7">
            <stop stop-color="#C7EBFF" offset="0%"></stop>
            <stop stop-color="#92CDFA" offset="100%"></stop>
        </linearGradient>
        <linearGradient x1="54.8043157%" y1="54.2528084%" x2="57.553412%" y2="47.6890113%" id="linearGradient-8">
            <stop stop-color="#5EB2FC" offset="0%"></stop>
            <stop stop-color="#92CDFA" offset="100%"></stop>
        </linearGradient>
    </defs>
    <g id="diseños" stroke="none" stroke-width="1" fill="none" fill-rule="evenodd">
        <g id="Artboard" transform="translate(-376.000000, -10.000000)">
            <g id="promo-bar-navidad">
                <g id="background" transform="translate(342.000000, -43.000000)">
                    <g id="montains" transform="translate(0.000000, 53.000000)">
                        <path d="M1182.0071,121.056 C1182.7881,120.234 1182.9111,118.866 1181.5791,118.208 C1148.4171,101.813 1111.9051,92.73 1078.3461,77.169 C1060.4931,68.891 1045.5861,57.983 1029.9711,46.55 C1023.9261,42.124 1017.6571,38.204 1011.0441,34.581 C1003.8701,30.651 996.9121,26.071 989.0071,23.493 C974.6001,18.795 966.3181,25.793 958.0711,36.032 C946.4911,50.41 929.6041,57.488 910.8421,59.661 C902.8371,60.589 894.6001,60.815 887.1901,64.164 C880.4751,67.2 875.6341,72.458 870.7011,77.53 C857.7921,90.801 840.0441,96.053 821.7971,99.797 C810.641767,102.085667 930.711767,109.172 1182.0071,121.056 Z" id="Fill-5" fill="url(#linearGradient-1)"></path>
                        <path d="M1350.67104,102.658485 C1337.42104,92.3224849 1322.83504,83.6064849 1309.42504,73.4454849 C1297.66704,64.5364849 1285.65304,55.3344849 1271.45504,50.0774849 C1256.87004,44.6774849 1240.70604,47.0184849 1226.12604,51.2314849 C1217.04004,53.8564849 1208.95104,54.7894849 1199.54604,53.1784849 C1191.89204,51.8664849 1184.50504,49.4284849 1177.30404,46.7094849 C1162.86804,41.2594849 1148.83504,34.5594849 1133.35004,32.1164849 C1080.24604,23.7354849 1040.83104,64.5564849 998.696039,87.1764849 C995.086039,89.1134849 991.403039,90.9204849 987.656039,92.6014849 C980.692039,90.9224849 974.660039,93.6034849 972.703039,101.186485 C970.373039,110.217485 973.986039,120.342485 981.298039,126.474485 C989.423039,133.288485 1000.73004,135.581485 1011.20604,136.942485 C1025.57604,138.809485 1040.14204,139.823485 1054.59204,140.951485 C1073.58504,142.432485 1092.60604,143.568485 1111.63904,144.479485 C1130.20704,145.369485 1148.96304,146.727485 1167.55704,146.094485 C1186.01804,145.464485 1204.25704,143.604485 1222.75004,144.622485 C1241.42404,145.648485 1260.15004,145.056485 1278.76104,143.370485 C1292.83204,142.095485 1306.82804,141.580485 1320.90604,140.558485 C1331.97204,139.755485 1344.25504,138.012485 1352.77604,130.710485 C1363.12304,121.845485 1360.68004,110.466485 1350.67104,102.658485" id="Fill-1" fill="url(#linearGradient-2)"></path>
                        <path d="M1446,37.5 C1431.368,31.671 1414.315,37.2151 1400.086,30.2311 C1381.498,21.1081 1352,-2 1344,6 C1340.56024,9.43975667 1330.594,19.0621 1326.341,23.6511 C1320.528,29.9261 1314.734,35.1181 1306.55,38.5941 C1298.201,42.1401 1249.5,53.5 1240,62 C1229.77876,71.1453212 1189.908,91.0301 1180.79,98.1931 C1180.072,97.8981 1179.183,97.9181 1178.456,98.5241 C1169.444,106.0271 1159.645,110.5891 1160.115,123.4931 C1160.505,134.1911 1171.656,139.5231 1181.412,142.0691 C1195.447,145.7321 1210.328,144.5701 1224.705,145.5391 C1243.456,146.8061 1262.05,149.5501 1280.75,151.3001 C1298.1,152.9231 1315.337,153.4901 1332.719,151.8891 C1351.808,150.1281 1370.699,146.7051 1389.853,145.5271 C1408.31,144.3911 1426.127,147.3301 1444.367,149.4041 C1457.013,150.8401 1469.736,151.7071 1482.207,148.8091 C1500.159,144.6371 1523.367,133.1961 1524.885,113.5791 C1526.71,90.0071 1507.362,70.14 1489.5,59 C1471,55 1460.091,43.113 1446,37.5 Z" id="Fill-3" fill="url(#linearGradient-3)"></path>
                        <path d="M1872.763,64.8841 C1860.158,57.0231 1849.697,45.3321 1835.606,39.7191 C1820.974,33.8901 1804.315,37.2151 1790.086,30.2311 C1771.498,21.1081 1753.878,0.3331 1730.803,11.6101 C1724.972,14.4591 1720.594,19.0621 1716.341,23.6511 C1710.528,29.9261 1704.734,35.1181 1696.55,38.5941 C1688.201,42.1401 1679.235,44.2151 1670.921,47.8471 C1663.091,51.2681 1656.026,56.0261 1648.507,59.9821 C1633.321,67.9731 1616.293,72.6811 1600.701,79.9791 C1589.926,85.0221 1579.908,91.0301 1570.79,98.1931 C1570.072,97.8981 1569.183,97.9181 1568.456,98.5241 C1559.444,106.0271 1549.645,110.5891 1550.115,123.4931 C1550.505,134.1911 1561.656,139.5231 1571.412,142.0691 C1585.447,145.7321 1600.328,144.5701 1614.705,145.5391 C1633.456,146.8061 1652.05,149.5501 1670.75,151.3001 C1688.1,152.9231 1705.337,153.4901 1722.719,151.8891 C1741.808,150.1281 1760.699,146.7051 1779.853,145.5271 C1798.31,144.3911 1816.127,147.3301 1834.367,149.4041 C1847.013,150.8401 1859.736,151.7071 1872.207,148.8091 C1890.159,144.6371 1913.367,133.1961 1914.885,113.5791 C1916.71,90.0071 1890.625,76.0241 1872.763,64.8841" id="Fill-3" fill="url(#linearGradient-4)"></path>
                        <path d="M1081.5797,101.208 C1048.4167,84.813 1011.9047,75.73 978.3457,60.169 C960.4937,51.891 945.5867,40.982 929.9707,29.55 C923.9267,25.124 917.6567,21.204 911.0447,17.581 C903.8697,13.651 888.905,4.578 881,2 C866.593,-2.698 872,5 858.0707,19.032 C844.024483,33.1817792 817.7993,48.97 788,60 C763.718823,68.9875059 746.153694,76.4245297 730.254348,80.7633153 C727.390937,81.5447141 724.581554,82.2256227 721.7967,82.797 C705.0647,86.23 687.8847,88.251 671.7037,93.741 C659.6787,97.821 1083.6307,109.661 1082.0067,104.056 C1082.7887,103.234 1082.9117,101.866 1081.5797,101.208 Z" id="Fill-8" fill="url(#linearGradient-5)"></path>
                        <path d="M378.671039,79.6584849 C365.421039,69.3224849 350.835039,60.6064849 337.425039,50.4454849 C325.667039,41.5364849 313.653039,32.3344849 299.455039,27.0774849 C284.870039,21.6774849 268.706039,24.0184849 254.126039,28.2314849 C245.040039,30.8564849 236.951039,31.7894849 227.546039,30.1784849 C219.892039,28.8664849 212.505039,26.4284849 205.304039,23.7094849 C190.868039,18.2594849 176.835039,11.5594849 161.350039,9.1164849 C108.246039,0.735484897 68.8310394,41.5564849 26.6960394,64.1764849 C23.0860394,66.1134849 19.4030394,67.9204849 15.6560394,69.6014849 C8.69203939,67.9224849 2.66003939,70.6034849 0.703039394,78.1864849 C-1.62696061,87.2174849 1.98603939,97.3424849 9.29803939,103.474485 C17.4230394,110.288485 28.7300394,112.581485 39.2060394,113.942485 C53.5760394,115.809485 68.1420394,116.823485 82.5920394,117.951485 C101.585039,119.432485 120.606039,120.568485 139.639039,121.479485 C158.207039,122.369485 176.963039,123.727485 195.557039,123.094485 C214.018039,122.464485 232.257039,120.604485 250.750039,121.622485 C269.424039,122.648485 288.150039,122.056485 306.761039,120.370485 C320.832039,119.095485 334.828039,118.580485 348.906039,117.558485 C359.972039,116.755485 372.255039,115.012485 380.776039,107.710485 C391.123039,98.8454849 388.680039,87.4664849 378.671039,79.6584849" id="Fill-1" fill="url(#linearGradient-6)"></path>
                        <path d="M767.31036,63.2638975 C754.70536,55.4028975 744.24436,43.7118975 730.15336,38.0988975 C715.52136,32.2698975 698.86236,35.5948975 684.63336,28.6108975 C666.04536,19.4878975 648.42536,-1.28710247 625.35036,9.98989753 C619.51936,12.8388975 615.14136,17.4418975 610.88836,22.0308975 C605.07536,28.3058975 599.28136,33.4978975 591.09736,36.9738975 C582.74836,40.5198975 573.78236,42.5948975 565.46836,46.2268975 C557.63836,49.6478975 550.57336,54.4058975 543.05436,58.3618975 C527.86836,66.3528975 510.84036,71.0608975 495.24836,78.3588975 C484.47336,83.4018975 474.45536,89.4098975 465.33736,96.5728975 C464.61936,96.2778975 463.73036,96.2978975 463.00336,96.9038975 C453.99136,104.406898 444.19236,108.968898 444.66236,121.872898 C445.05236,132.570898 456.20336,137.902898 465.95936,140.448898 C479.99436,144.111898 494.87536,142.949898 509.25236,143.918898 C528.00336,145.185898 546.59736,147.929898 565.29736,149.679898 C582.64736,151.302898 599.88436,151.869898 617.26636,150.268898 C636.35536,148.507898 655.24636,145.084898 674.40036,143.906898 C692.85736,142.770898 710.67436,145.709898 728.91436,147.783898 C741.56036,149.219898 754.28336,150.086898 766.75436,147.188898 C784.70636,143.016898 807.91436,131.575898 809.43236,111.958898 C811.25736,88.3868975 785.17236,74.4038975 767.31036,63.2638975" id="Fill-3" fill="url(#linearGradient-7)"></path>
                        <path d="M626.12706,111.587798 C592.96406,95.1927975 556.45206,86.1097975 522.89306,70.5487975 C505.04106,62.2707975 490.13406,51.3617975 474.51806,39.9297975 C468.47406,35.5037975 462.20406,31.5837975 455.59206,27.9607975 C448.41706,24.0307975 433.45236,14.9577975 425.54736,12.3797975 C411.14036,7.68179753 416.54736,15.3797975 402.61806,29.4117975 C388.571843,43.5615768 362.34666,59.3497975 332.54736,70.3797975 C308.266183,79.3673034 290.701054,86.8043273 274.801708,91.1431128 C271.938297,91.9245117 269.128914,92.6054202 266.34406,93.1767975 C249.61206,96.6097975 232.43206,98.6307975 216.25106,104.120798 C204.22606,108.200798 628.17806,120.040798 626.55406,114.435798 C627.33606,113.613798 627.45906,112.245798 626.12706,111.587798 Z" id="Fill-8" fill="url(#linearGradient-8)"></path>
                    </g>
                </g>
            </g>
        </g>
    </g>
</svg>