<?xml version="1.0" encoding="UTF-8"?>
<svg width="152px" height="50px" viewBox="0 0 152 50" version="1.1" xmlns="http://www.w3.org/2000/svg" xmlns:xlink="http://www.w3.org/1999/xlink">
    <!-- Generator: Sketch 60.1 (88133) - https://sketch.com -->
    <title>santa</title>
    <desc>Created with Sketch.</desc>
    <g id="diseños" stroke="none" stroke-width="1" fill="none" fill-rule="evenodd">
        <g id="Artboard" transform="translate(-713.000000, -10.000000)" fill="#5EB2FC">
            <g id="promo-bar-navidad">
                <g id="background" transform="translate(1.000000, -43.000000)">
                    <g id="santa" transform="translate(712.000000, 53.000000)">
                        <path d="M23.9291748,30.2085437 C23.708301,30.1032039 23.3218932,30.052233 23.1709223,29.8590291 C22.961699,29.591068 23.2267476,29.2449515 23.2534466,28.9769903 C23.2942233,28.5638835 23.0718932,28.2114563 22.7903398,27.8934951 C22.3728641,27.4235922 21.8631553,27.0536893 21.7320874,26.4303883 C21.6626699,26.0983495 21.692767,25.7687379 21.8311165,25.4633981 C21.9243204,25.2585437 22.1257767,25.0731068 22.1383981,24.8396117 C22.1602427,24.4347573 21.7029612,24.2104854 21.3908252,24.0138835 C20.7869417,23.6337864 20.1845146,23.2541748 19.5714078,22.8876699 C20.0126699,22.0978641 20.2893689,21.2347573 20.3602427,20.328932 C20.423835,19.5206796 20.3743204,18.5284466 19.9820874,17.7847573 C20.7029612,17.4041748 21.1650971,16.6056311 21.100534,15.771165 C21.092767,15.671165 21.0078155,15.5536893 20.892767,15.5697087 C20.1806311,15.6672816 19.5631553,15.991068 19.1073301,16.5240777 C19.0845146,16.4784466 19.0447087,16.4352427 18.9845146,16.4007767 C18.2500485,15.9760194 17.4466505,15.6803883 16.5917961,15.5663107 C15.6490777,15.4405825 14.7393689,15.6007767 13.8019903,15.5420388 C12.8335437,15.4813592 11.8976214,15.1468932 11.0636408,14.6784466 C10.3189806,14.2604854 9.72334951,13.7197087 9.05101942,13.236699 C8.99859223,11.9070874 9.00975728,10.5061165 9.6165534,9.2968932 C9.83063107,8.86970874 10.1937379,8.41873786 10.0650971,7.90708738 C9.9981068,7.63864078 9.81412621,7.44009709 9.58839806,7.30223301 C9.60150485,7.28718447 9.61461165,7.27116505 9.6257767,7.25271845 L9.67140777,7.17359223 C9.86946602,6.83475728 10.0563592,6.51436893 10.3301456,6.23038835 C10.3364563,6.22407767 10.3422816,6.21776699 10.3481068,6.21048544 C11.1049029,6.13815534 11.8675243,5.98718447 12.6063592,5.84106796 C12.8917961,5.78475728 13.1757767,5.7284466 13.4587864,5.67650485 L13.8510194,5.60514563 C14.769466,5.4376699 15.7189806,5.26436893 16.6519903,5.08621359 C16.7816019,5.06145631 16.8874272,4.99932039 16.9568447,4.90854369 C17.0286893,4.88184466 17.0893689,4.8323301 17.1330583,4.76339806 C17.7325728,3.82553398 18.4267476,2.94106796 19.0976214,2.08572816 C19.461699,1.62165049 19.8383981,1.14203883 20.1976214,0.656601942 C20.2704369,0.557572816 20.2597573,0.429902913 20.1718932,0.346407767 C20.0777184,0.257572816 19.9277184,0.250776699 19.8306311,0.331359223 C18.5029612,1.4323301 17.4466505,2.93427184 16.5864563,4.27262136 C16.5665534,4.27456311 16.5471359,4.27747573 16.527233,4.28087379 C15.5714078,4.46339806 14.6015049,4.65708738 13.6636408,4.84446602 L13.2063592,4.93524272 C12.9340291,4.98961165 12.6578155,5.04058252 12.3816019,5.09203883 L12.1340291,5.1376699 C12.0456796,4.9415534 11.9563592,4.74592233 11.8670388,4.55029126 C11.6728641,4.12456311 11.4723786,3.68427184 11.2859709,3.24883495 C11.0806311,2.77067961 11.2126699,2.25660194 11.3524757,1.71291262 C11.4102427,1.48621359 11.4704369,1.25223301 11.5044175,1.02067961 C11.5282039,0.856601942 11.4301456,0.71 11.2767476,0.670194175 C11.1228641,0.63184466 10.9709223,0.715825243 10.9146117,0.870194175 C10.8903398,0.938640777 10.8631553,1.01097087 10.835,1.08621359 C10.6136408,1.67796117 10.3107282,2.48815534 10.4587864,3.11048544 C10.5942233,3.67941748 10.8650971,4.24543689 11.1267476,4.79300971 C11.208301,4.96339806 11.2869417,5.12747573 11.3597573,5.28864078 C10.8573301,5.39252427 10.4602427,5.49058252 10.0932524,5.60126214 C10.0864563,5.60271845 10.0801456,5.60466019 10.073835,5.60708738 C10.0587864,5.60660194 10.0437379,5.60660194 10.0286893,5.60805825 C9.80393204,5.43961165 9.57723301,5.27213592 9.35053398,5.10466019 C8.81995146,4.71339806 8.27140777,4.30854369 7.75393204,3.88864078 C6.97043689,3.25271845 6.64082524,2.66825243 6.57820388,1.80368932 C6.5665534,1.64834951 6.4534466,1.52601942 6.30101942,1.50660194 C6.14762136,1.48718447 6.00587379,1.57796117 5.95587379,1.72699029 C5.61703883,2.73815534 6.44228155,3.70126214 6.81315534,4.06825243 C7.41412621,4.6638835 8.11898058,5.17796117 8.80053398,5.67504854 C8.98985437,5.81339806 9.18402913,5.95514563 9.37432039,6.09737864 C9.03257282,5.96436893 8.68305825,5.85417476 8.34325243,5.74737864 C8.04082524,5.65223301 7.72771845,5.55368932 7.42626214,5.44058252 C6.72480583,5.17747573 6.24082524,4.7692233 5.63402913,4.22165049 C5.54616505,4.14203883 5.41898058,4.12990291 5.31752427,4.19106796 C5.21849515,4.25126214 5.17092233,4.36776699 5.20004854,4.48135922 C5.52480583,5.73961165 7.03063107,6.19834951 8.24082524,6.56679612 C8.56898058,6.66679612 8.88208738,6.76242718 9.14907767,6.86533981 C9.12966019,6.92504854 9.11315534,6.98281553 9.09956311,7.03961165 C9.0942233,7.06194175 9.09276699,7.08378641 9.09276699,7.10514563 C8.0981068,6.86679612 7.0126699,7.31582524 6.05490291,7.52019417 C5.07432039,7.72941748 3.61995146,7.53135922 3.05587379,8.58427184 C3.04519417,8.60466019 3.03936893,8.62553398 3.03791262,8.64640777 C2.80247573,8.91436893 2.93985437,9.42893204 3.22868932,9.69106796 C3.88208738,10.283301 5.20927184,10.2415534 5.7442233,10.8998058 C5.34616505,11.544466 4.86800971,12.1405825 4.56849515,12.8415534 C4.25150485,13.5842718 4.0811165,14.3799029 3.96024272,15.1750485 C3.81703883,16.1197087 3.54762136,17.3726214 3.90975728,18.3342718 C3.28354369,18.2226214 2.65053398,18.1376699 2.02383495,18.0396117 C1.58936893,17.9716505 1.15441748,17.9041748 0.719466019,17.8381553 C0.537912621,17.8104854 0.290825243,17.7362136 0.127718447,17.8566019 C-0.228106796,18.1192233 0.257815534,18.633301 0.40538835,18.8604854 C0.862184466,19.5658252 1.32092233,20.2701942 1.78791262,20.9692233 C1.22092233,20.8041748 0.585485437,21.1959223 0.500533981,21.7964078 C0.44276699,22.2080583 0.685485437,22.6274757 0.840825243,22.9905825 C1.08694175,23.5643689 1.34179612,24.1342718 1.60490291,24.6998058 C2.1165534,25.8002913 2.66121359,26.8852427 3.2442233,27.9498058 C3.62868932,28.6527184 4.15878641,29.4400971 5.07480583,29.2235922 C5.13936893,29.2085437 5.17140777,29.1633981 5.17868932,29.1138835 C5.1942233,29.0993204 5.20878641,29.0823301 5.21800971,29.0590291 C5.38451456,28.6464078 5.30441748,28.171165 5.02771845,27.8240777 C4.74179612,27.4658252 4.36218447,27.4095146 3.96606796,27.2964078 C3.63839806,26.5900971 3.32432039,25.8779612 3.03742718,25.1527184 C2.8626699,24.7095146 2.6942233,24.2629126 2.53257282,23.8148544 C2.35247573,23.3153398 1.67771845,21.8653398 2.85053398,22.0221359 C2.86072816,22.0235922 2.87043689,22.0231068 2.87917476,22.021165 C2.88063107,22.0347573 2.88742718,22.048835 2.90199029,22.0590291 C3.47966019,22.4629126 3.95684466,22.7823301 4.29713592,23.4269903 C4.50975728,23.8308738 4.66898058,24.2803883 5.05830097,24.5532039 C5.29907767,24.721165 5.59033981,24.7959223 5.83645631,24.9561165 C6.06218447,25.1032039 6.2534466,25.298835 6.47480583,25.4527184 C6.84033981,25.7061165 7.24859223,25.8357282 7.67334951,25.6604854 C7.77966019,25.6167961 7.78985437,25.491068 7.74033981,25.4206796 C7.7388835,25.4129126 7.73742718,25.4046602 7.73451456,25.3964078 C7.57480583,24.9566019 7.42237864,24.4061165 7.1165534,24.0415534 C6.81898058,23.686699 6.43014563,23.7197087 6.02432039,23.7080583 C5.34859223,23.167767 4.85053398,22.5274757 4.28548544,21.8925243 C7.81995146,21.067767 11.2879126,22.5750485 14.7675243,23.0934951 C14.8888835,23.5265049 15.1311165,23.9342718 15.4296602,24.2794175 C15.3529612,24.5735922 15.2879126,24.8716505 15.227233,25.1648544 C15.2267476,25.1658252 15.227233,25.1667961 15.227233,25.167767 C14.6684951,25.4274757 14.1044175,25.7080583 13.5903398,26.0352427 C13.096165,26.348835 12.8680097,26.7284466 12.7320874,27.2920388 C12.373835,28.7799029 12.1296602,30.3061165 11.9626699,31.8260194 C11.958301,31.8643689 12.0369417,32.2357282 12.169466,32.1240777 C12.6510194,31.7158252 13.4204369,31.178932 13.6311165,30.5561165 C13.6816019,30.4075728 13.6888835,30.2609709 13.6248058,30.1138835 C13.5898544,30.0337864 13.5277184,29.9818447 13.4767476,29.9148544 C13.3820874,29.7896117 13.2942233,29.6701942 13.2223786,29.5415534 C13.4869417,29.2502913 13.9301456,29.0362136 13.9063592,28.6672816 C13.8971359,28.5284466 13.8019903,28.4498058 13.7335437,28.336699 C13.5898544,28.098835 13.5325728,27.8750485 13.5558738,27.6502913 C13.9408252,27.2667961 14.5932524,27.1216505 15.0777184,26.9400971 C15.7403398,26.6915534 16.4068447,26.4507767 17.066068,26.1915534 C17.3937379,26.0629126 17.9466505,25.9279612 18.1447087,25.6075728 C18.235,25.4624272 18.2519903,25.2667961 18.2364563,25.0619417 C18.2854854,25.0837864 18.3345146,25.1051456 18.3830583,25.125534 C19.1146117,25.4313592 19.8840291,25.594466 20.6714078,25.6512621 C20.9976214,27.1575728 21.5301456,28.6070874 22.0684951,30.0498058 C22.4917961,31.1842718 22.9888835,32.2056311 24.3471359,32.2718145 C24.4024757,32.2740777 24.4398544,32.2493204 24.4612136,32.2133981 C24.473835,32.2027184 24.4859709,32.1905825 24.4971359,32.1765049 C25.008301,31.5245631 24.7277184,30.5891262 23.9291748,30.2085437" id="Fill-1"></path>
                        <path d="M5.86349515,18.1254854 C22.348932,20.7143204 40.3542718,21.8691748 58.1950485,21.3186893 C67.3931068,21.0347087 76.2198058,20.1686893 85.2013592,19.4788835 C92.9353398,18.8847087 100.865922,18.4711165 108.792621,18.8890777 C116.418835,19.2915049 123.796505,20.4429612 128.821748,22.6216019 C129.058641,22.7245146 128.567864,22.8725728 128.327087,22.7696602 C117.316408,18.0764563 98.6499029,18.6735437 83.9018447,19.8521845 C75.3824272,20.532767 66.964466,21.3128641 58.2275728,21.5798544 C49.7761165,21.8381068 41.2261165,21.7220874 32.8207767,21.2478155 C23.4460194,20.7182039 14.2474757,19.7381068 5.59893204,18.3050971 C5.26349515,18.2492718 5.53,18.0730583 5.86349515,18.1254854" id="Fill-3"></path>
                        <path d="M4.60106796,16.128301 C19.4704854,19.2418932 35.977767,20.6384951 52.7340777,20.6807282 C61.6787379,20.7030583 70.5568932,20.3695631 79.277767,19.8166505 C87.2059223,19.3137379 95.1661165,18.6030583 103.353981,19.3185922 C111.398641,20.0219903 118.532621,21.7787864 124.642816,23.7918932 C124.924369,23.8846117 124.528252,24.0253883 124.246214,23.9346117 C118.293301,22.0190777 111.452039,20.3219903 103.727282,19.5982039 C95.0602913,18.786068 86.6253398,19.6185922 78.2243689,20.1302427 C62.1233981,21.1103398 45.3238835,21.331699 29.0117476,19.9312136 C20.4258252,19.1943204 11.9030097,18.0210194 4.35398058,16.2855825 C4.06951456,16.2200485 4.30737864,16.0671359 4.60106796,16.128301" id="Fill-5"></path>
                        <path d="M137.045437,46.2064078 C136.873592,46.177767 136.701262,46.1500971 136.529417,46.1229126 C136.494951,44.9928155 136.37165,43.7500971 136.228447,42.6214563 C136.408544,42.6394175 136.588641,42.6554369 136.766796,42.6675728 C136.938155,43.9054369 137.097864,45.1738835 137.045437,46.2064078 L137.045437,46.2064078 Z M135.663883,47.7782524 C134.12068,47.454466 132.563883,47.1797087 130.958058,46.9816505 C126.761456,46.4632039 122.575049,45.9680583 118.457087,44.981165 C115.259515,44.2151456 111.817282,42.8874757 108.895437,41.3229126 C108.659029,41.196699 108.414854,41.0583495 108.168738,40.9132039 C108.839612,40.9962136 109.511456,40.9530097 110.180388,40.7840777 C110.196893,40.7797087 110.214369,40.7743689 110.231359,40.7695146 C111.236214,41.508835 112.43767,42.0530097 113.474563,42.4598058 C117.936699,44.2107767 122.372621,45.2801942 127.150777,45.7263107 C129.793981,45.9733981 132.445437,46.1068932 135.084757,46.396699 C135.291068,46.4190291 135.496408,46.446699 135.700777,46.4753398 C135.710485,46.9345631 135.701748,47.3738835 135.663883,47.7782524 L135.663883,47.7782524 Z M114.650291,37.7748544 L116.292524,38.158835 C114.936214,39.2127184 113.132816,40.2860194 111.471165,40.2185437 C112.614854,39.5680583 113.896893,38.538932 114.650291,37.7748544 L114.650291,37.7748544 Z M133.556117,42.1957282 L133.563398,42.162233 C134.160485,42.3117476 134.774563,42.4306796 135.390097,42.5195146 C135.492039,43.6437864 135.632816,44.8641748 135.684272,45.9957282 C134.719223,45.8568932 133.744951,45.7423301 132.751262,45.6612621 C128.929417,45.3496117 125.118252,45.0578641 121.349806,44.3180583 C118.424078,43.7442718 115.25466,42.6704854 112.548835,41.3627184 C112.330388,41.2573786 112.103689,41.1403883 111.875049,41.0185437 C112.485728,41.0690291 113.09301,41.0039806 113.693495,40.8258252 C114.692524,40.5292233 116.214369,39.3442718 117.20466,38.3719417 L133.556117,42.1957282 Z M150.941068,23.6714563 C150.227961,23.3947573 149.533301,23.17 148.850291,23.0059223 C149.030388,22.3806796 149.14932,21.696699 149.037184,21.0714563 C148.918252,20.4098058 148.414854,20.07 148.18233,19.4797087 C147.689612,18.2267961 148.805631,16.6792233 147.331845,15.7384466 C147.118252,15.6025243 146.041068,15.5899029 145.797379,15.5423301 C145.763398,14.8030097 146.450291,15.0030097 146.608544,14.2462136 C146.658544,14.0068932 146.450291,13.8593204 146.233786,13.896699 C145.113883,14.0894175 144.421165,14.2297087 143.517282,13.4704854 C143.221165,13.2214563 142.737184,13.2204854 142.959515,13.5661165 C143.650777,14.6408738 144.273107,14.6831068 144.73767,15.7831068 C144.58767,15.8583495 144.444951,15.9428155 144.314854,16.0350485 C143.999806,16.2573786 143.764369,16.5471845 143.56534,16.8636893 C142.585243,16.708835 141.527476,16.9724272 140.725049,17.5835922 C139.944466,18.1782524 139.529417,18.9976699 139.32068,19.8903883 C138.862913,19.993301 138.418252,20.1651456 137.979903,20.5107767 C137.623592,20.7913592 137.320194,21.131165 137.069223,21.5059223 C136.98233,21.5078641 136.895437,21.512233 136.809029,21.5190291 C136.81,21.5132039 136.811942,21.5078641 136.812913,21.5020388 C136.934272,20.8437864 136.791553,20.2141748 136.458058,19.7000971 C136.773107,19.5399029 137.072136,19.3549515 137.338641,19.1360194 C137.342039,19.1331068 137.34301,19.1292233 137.346408,19.1263107 C137.351748,19.1292233 137.135728,18.2763107 136.942524,17.9418447 C138.488155,18.0685437 140.073592,17.3884466 140.692039,15.8748544 C140.865825,15.9636893 141.062427,16.0127184 141.27068,15.9996117 C141.890583,15.9602913 142.366311,15.4214563 142.327476,14.8015534 C142.288155,14.181165 141.748835,13.7059223 141.128932,13.7447573 C140.509029,13.7835922 140.033301,14.3229126 140.072136,14.943301 C140.079903,15.0627184 140.110971,15.1748544 140.152718,15.281165 C138.662427,15.3806796 138.417282,13.4151456 137.743981,12.5301942 C137.406117,12.0850485 136.973592,11.7306796 136.490583,11.4539806 C135.392039,10.8238835 134.050291,10.6408738 132.809515,10.8403883 C130.719223,11.1767961 129.858058,12.6394175 130.227476,14.3190291 C130.02699,14.4267961 129.85466,14.5971845 129.710485,14.793301 C129.302233,15.3500971 129.025534,16.0340777 128.732816,16.6680583 C127.826019,16.9680583 126.917282,17.5704854 126.108058,17.7627184 C125.901748,17.8117476 125.852233,17.9937864 125.905631,18.1491262 C125.808544,18.1442718 125.710485,18.1428155 125.612913,18.1481553 C125.14835,18.1729126 123.883301,18.8093204 123.468252,18.3709709 C123.501262,18.2918447 123.53767,18.2146602 123.567767,18.1345631 C123.612913,18.0156311 123.364369,17.5801942 123.224563,17.6408738 C122.757087,17.843301 121.569223,16.4874757 120.837184,16.4840777 C120.138641,16.481165 119.499806,16.92 119.055146,17.4209709 C118.053689,18.5486408 118.285243,19.9835922 119.37165,20.9520388 C119.62165,21.1748544 119.917282,21.3564078 120.205146,21.5267961 C120.46,21.6651456 120.717767,21.7981553 120.978932,21.9253398 C121.405146,22.1039806 121.725534,22.3947573 121.941068,22.7986408 C122.156602,22.9500971 122.403689,23.0102913 122.594466,23.1098058 C123.140097,23.3952427 123.530388,23.9136893 124.196893,24.0593204 C124.19932,24.0598058 124.201262,24.0598058 124.203689,24.0602913 C124.025534,25.0971845 123.672621,26.0602913 122.751748,26.785534 C122.641553,26.8714563 122.484757,27.208835 122.456117,27.3020388 C122.362427,27.6068932 122.334757,27.893301 122.359029,28.1641748 C122.223592,28.2423301 122.088155,28.3263107 121.953689,28.4224272 C121.798835,28.5331068 121.650291,28.6534951 121.50466,28.7767961 C119.978447,28.338932 118.339612,29.2957282 117.416311,30.7078641 C116.38233,32.2903883 116.482816,34.0491262 117.342524,35.5326214 C115.615825,35.5020388 112.792039,34.9835922 111.769223,36.654466 C111.578447,36.9651456 111.877961,37.2263107 112.16,37.1928155 L113.717282,37.5568932 C112.684272,38.3481553 111.338155,39.2248544 109.956117,39.6923301 C109.596893,39.351068 109.289126,38.9714563 109.076505,38.5442718 C108.846893,38.0840777 108.67699,36.8224272 108.881359,35.9263107 C108.995437,36.3738835 109.346893,36.743301 109.828932,36.8481553 C110.507573,36.9957282 111.17699,36.5651456 111.324563,35.8865049 C111.47165,35.2083495 111.041553,34.5384466 110.362913,34.3913592 C110.274563,34.3719417 110.186214,34.3636893 110.09932,34.3632039 C108.714369,34.0733981 108.046408,35.7476699 108.080388,37.2083495 C108.105631,38.2758252 108.564854,39.1573786 109.244951,39.893301 C108.24301,40.1190291 107.247379,40.0869903 106.363883,39.608835 C105.874563,39.1539806 105.458544,38.6418447 105.197864,38.058835 C104.966311,37.5418447 104.836214,36.1437864 105.102718,35.1661165 C105.207573,35.6641748 105.578447,36.0874757 106.10466,36.2248544 C106.845437,36.4180583 107.602718,35.9743689 107.795922,35.2335922 C107.989612,34.4928155 107.545437,33.735534 106.805146,33.5423301 C106.708544,33.5166019 106.611942,33.5034951 106.515825,33.4991262 C105.003204,33.1166019 104.190583,34.9306796 104.161942,36.5418447 C104.138641,37.8214563 104.690583,38.8840777 105.514369,39.7704854 C105.543981,39.8204854 105.590583,39.8714563 105.654175,39.9233981 C106.822621,41.1083495 108.47699,41.9617476 109.86534,42.5743689 C114.701748,44.7068932 119.540097,46.0874757 124.784757,46.7976699 C127.685243,47.1903883 130.601262,47.458835 133.495437,47.8981553 C136.052233,48.2865049 138.450291,49.1505825 140.973107,49.6559223 C141.336699,49.7287379 141.48233,49.1908738 141.119709,49.0952427 C139.557573,48.6816505 138.022621,48.2952427 136.479903,47.9539806 C136.480388,47.9491262 136.482816,47.946699 136.483301,47.9418447 C136.524563,47.538932 136.540583,47.0879612 136.538155,46.6093204 C138.345922,46.9297087 140.105146,47.4214563 141.926019,47.7083495 C142.258058,47.7607767 142.370194,47.2685437 142.03767,47.1947573 C140.606602,46.8792233 139.201262,46.5865049 137.791068,46.3350485 C137.791553,46.3306796 137.793495,46.3282524 137.793495,46.3243689 C137.855146,45.3161165 137.731845,43.9908738 137.54932,42.7054369 C137.905146,42.7146602 138.255146,42.7132039 138.59301,42.6996117 C140.886699,42.6078641 142.557573,41.2267961 144.050291,39.5481553 C147.635243,35.5136893 149.017767,30.3282524 149.224078,25.0166019 C149.710485,24.6554369 150.274078,24.396699 150.881359,24.2695146 C151.143495,24.2141748 151.19835,23.7714563 150.941068,23.6714563 L150.941068,23.6714563 Z" id="Fill-10"></path>
                        <path d="M102.266068,28.844466 C102.069466,28.0197087 101.41267,27.7629126 100.685971,27.7468932 C100.018495,27.4658252 99.5053883,26.9274757 98.9068447,26.5172816 C98.4568447,26.2085437 97.9981068,25.9201942 97.5432524,25.6235922 C97.3058738,25.2396117 97.0917961,24.8430097 96.9044175,24.4303883 C96.7631553,24.1187379 96.6398544,23.8080583 96.2913107,23.6876699 C95.8481068,23.5357282 95.258301,23.6925243 94.8097573,23.7303883 C94.4796602,23.7585437 94.1485922,23.7823301 93.8184951,23.8104854 C93.8015049,23.794466 93.7796602,23.7818447 93.7524757,23.7745631 C93.0718932,23.594466 92.4757767,23.136699 92.2189806,22.4648544 C91.9723786,21.821165 92.0723786,21.117767 91.9728641,20.448835 C91.8908252,19.9012621 91.6359709,19.3803883 91.2282039,19.0459223 C91.4184951,19.0148544 91.5913107,18.9347583 91.7092718,18.7532039 C91.8835437,18.4847573 91.8340291,18.1226214 91.8146117,17.821165 C91.7888835,17.4323301 91.8286893,16.96 91.6825728,16.5891262 C91.4291748,15.9449515 90.7917961,16.4002913 90.400534,16.6507767 C89.8913107,16.9760194 89.4587864,17.3590291 89.2209223,17.8881553 C88.0364563,17.9527184 86.8524757,18.025534 85.6684951,18.0954369 C84.5568447,18.1609709 83.4282039,18.1876699 82.3126699,18.2828155 C81.7587864,17.9828155 81.2063592,17.6808738 80.6665534,17.3532039 C80.2214078,17.0823301 79.7898544,16.7876699 79.3534466,16.5012621 C79.0801456,15.2925243 78.8388835,14.0459223 78.4534466,12.8735922 C78.6524757,12.4104854 78.8621845,11.9590291 78.9544175,11.5493204 C79.0782039,10.9934951 78.9597573,10.2998058 78.4311165,10.06 C78.642767,9.03524272 78.885,8.25029126 79.1515049,7.72747573 C79.9296602,7.72359223 80.719466,7.65854369 81.4898544,7.59495146 C82.0393689,7.54932039 82.608301,7.50271845 83.1597573,7.48038835 C84.6888835,7.42165049 86.177233,7.39737864 87.5835437,7.40805825 C87.7481068,7.40902913 87.8874272,7.32796117 87.9641262,7.18815534 C88.0097573,7.15514563 88.6092718,6.1231068 88.873835,5.66728155 L88.8845146,5.64932039 C89.3981068,4.76436893 89.9291748,3.84883495 90.3942233,2.91873786 C90.4748058,2.75805825 90.4189806,2.56873786 90.2641262,2.47893204 C90.116068,2.39252427 89.9311165,2.43621359 89.8335437,2.58087379 C89.2529612,3.44252427 88.7189806,4.35466019 88.2015049,5.2376699 C87.9515049,5.66485437 87.692767,6.1061165 87.4316019,6.53815534 C87.1107282,6.54203883 86.7689806,6.54834951 86.3922816,6.55757282 C86.4966505,5.99980583 86.6951942,5.48330097 86.9044175,4.93864078 L86.9102427,4.92504854 C86.9646117,4.78330097 87.0199515,4.64009709 87.0728641,4.49543689 C87.1335437,4.3323301 87.0631553,4.15466019 86.9049029,4.07359223 C86.7515049,3.99495146 86.5704369,4.04009709 86.4748058,4.18135922 C85.9932524,4.88961165 85.7743204,5.7192233 85.5830583,6.58087379 C85.2811165,6.59058252 84.9845146,6.60174757 84.6976214,6.6138835 C84.696165,6.61145631 84.6951942,6.60854369 84.6937379,6.60563107 C84.4209223,6.00126214 84.4699515,5.41631068 84.8563592,4.65029126 C84.9243204,4.51485437 84.8806311,4.35029126 84.7519903,4.25854369 C84.623835,4.16728155 84.4544175,4.17941748 84.3485922,4.28864078 C83.7223786,4.93427184 83.661699,5.91291262 83.8811165,6.65223301 C83.5791748,6.66825243 83.2835437,6.68572816 83.0000485,6.70466019 C82.9301456,6.70902913 82.8592718,6.71339806 82.7888835,6.71776699 C82.7699515,6.69786408 82.7485922,6.68038835 82.7248058,6.66485437 C82.2000485,6.31194175 81.7816019,5.85174757 81.4126699,5.44058252 C81.4112136,5.4192233 81.3534466,5.2731068 81.3481068,5.25126214 C81.2500485,4.82747573 81.2354854,4.5731068 81.1908252,4.21825243 C81.1752913,4.09495146 81.1680097,3.96776699 81.1597573,3.82504854 C81.1447087,3.5507767 81.1286893,3.26679612 81.0398544,2.99349515 C81.000534,2.87359223 80.8893689,2.79300971 80.7631553,2.79398058 C80.6408252,2.79495146 80.5335437,2.87359223 80.496165,2.99203883 C80.2777184,3.68524272 80.4524757,4.58378641 80.5932524,5.30708738 C80.6097573,5.38864078 80.6248058,5.46825243 80.6388835,5.54349515 C80.6578155,5.64543689 80.7752913,5.89737864 80.8563592,5.95271845 C81.0699515,6.28427184 81.2888835,6.44495146 81.650534,6.7823301 C80.7223786,6.8376699 79.8165534,6.91 78.9398544,7.09252427 C78.9223786,7.08621359 78.9044175,7.08087379 78.8854854,7.07747573 C78.2267476,6.94009709 77.6218932,6.74300971 76.9602427,6.51776699 C76.9044175,6.36825243 76.8485922,6.21873786 76.7922816,6.06825243 L76.7816019,6.03961165 C76.4529612,5.15805825 76.1131553,4.24592233 75.708301,3.38524272 C75.6374272,3.23427184 75.4684951,3.16728155 75.3073301,3.22699029 C75.1485922,3.28572816 75.0626699,3.4507767 75.1068447,3.61 C75.3607282,4.51970874 75.6966505,5.42407767 76.0214078,6.29932039 C76.0825728,6.4638835 76.1432524,6.6284466 76.203932,6.79300971 C76.2476214,6.91242718 76.3408252,7.00271845 76.4602427,7.04252427 C77.0903398,7.41339806 77.7840291,7.62504854 78.2956796,7.74203883 C78.1451942,8.10514563 78.0243204,8.46242718 77.9364563,8.8061165 L77.6432524,8.79203883 C76.7199515,8.74932039 75.7646117,8.70514563 74.8286893,8.59398058 C74.8175243,8.59252427 74.8068447,8.5915534 74.796165,8.59106796 C74.661699,8.41631068 74.5121845,8.25514563 74.366068,8.09834951 L74.3587864,8.08961165 C74.3000485,8.02601942 74.2413107,7.96291262 74.1840291,7.89980583 L73.3403398,6.95708738 C73.2510194,6.85660194 73.1204369,6.81339806 72.992767,6.8415534 C72.858301,6.87067961 72.7451942,6.97504854 72.703932,7.10708738 C72.6646117,7.2323301 72.6966505,7.36631068 72.7888835,7.46485437 L73.6553883,8.38669903 C73.716068,8.45174757 73.7767476,8.51873786 73.8388835,8.5876699 C74.0408252,8.81048544 74.2495631,9.04106796 74.4971359,9.22990291 C74.4995631,9.23184466 74.5019903,9.23378641 74.5044175,9.23524272 C74.569466,9.3138835 74.661699,9.36242718 74.766068,9.3731068 C75.6587864,9.46485437 76.7146117,9.55271845 77.7985922,9.51436893 C77.7869417,9.59203883 77.7743204,9.68378641 77.7655825,9.74349515 C77.3311165,9.63864078 76.8709223,9.68718447 76.5044175,9.87747573 C75.1243204,10.5949515 73.6825728,10.371165 72.277233,11.0663107 C71.5587864,11.421165 70.8175243,12.2148544 71.4917961,12.9002913 C71.861699,13.2769903 72.4471359,13.2595146 72.9277184,13.352233 C73.8044175,13.5221359 74.5320874,13.9667961 74.8675243,14.7769903 C74.5141262,15.1638835 74.1981068,15.591068 74.0180097,16.0808738 C73.750534,16.8070874 73.8398544,17.6153398 73.8922816,18.3697087 C73.9553883,19.2954369 74.0573301,20.2187379 74.1820874,21.1381553 C74.2801456,21.8575728 74.3680097,22.5745631 74.658301,23.2386408 C74.0097573,23.3653398 73.3650971,23.5124272 72.7199515,23.6566019 C72.2432524,23.7633981 71.5233495,23.7998058 71.1476214,24.1658252 C70.3335437,24.9575728 71.9529612,26.0643689 72.4670388,26.4740777 C73.4573301,27.2629126 74.5689806,27.9231068 75.7680097,28.3391262 C76.8811165,28.7250485 78.3044175,29.0561165 79.4369417,28.5847573 C79.5102427,28.5541748 79.5388835,28.4900971 79.535,28.4279612 C79.5665534,28.394466 79.5830583,28.3464078 79.5650971,28.2886408 C79.408301,27.7900971 79.2034466,27.3847573 78.6476214,27.2920388 C78.3728641,27.2464078 78.0650971,27.2658252 77.7597573,27.317767 C77.5898544,27.0604854 77.3277184,26.8779612 77.0029612,26.8299029 C76.7485922,26.7915534 76.5000485,26.8580583 76.253932,26.9114563 C76.1233495,26.9396117 75.9942233,26.9609709 75.8646117,26.9808738 C75.4199515,26.5595146 74.9500485,26.1148544 74.4510194,25.7357282 C74.9898544,25.7216505 75.5257767,25.741068 76.0680097,25.7939806 C76.5748058,25.8434951 77.1058738,25.941068 77.6087864,25.8104854 C78.4524757,25.5920388 78.8243204,24.7313592 79.4456796,24.1891262 C80.7888835,24.9930097 82.6379126,25.191068 84.1684951,25.1507767 C85.6903398,25.1114563 87.1777184,24.7624272 88.5553883,24.1294175 C89.2000485,24.986699 90.2063592,25.5502913 91.2500485,25.7590291 C92.6549029,26.0400971 94.1291748,25.8206796 95.4451942,26.4905825 C95.450534,26.4934951 95.4558738,26.4949515 95.4607282,26.4968932 C96.7718932,28.0964078 98.1840291,30.4949515 100.792767,30.2415534 C100.879175,30.233301 100.920922,30.1779612 100.928204,30.1192233 C100.961699,30.0842718 100.980631,30.0337864 100.96267,29.9740777 C100.852476,29.5954369 100.703447,29.2993204 100.311699,29.1643689 C100.047136,29.0735922 99.7180097,29.0269903 99.4107282,29.0473786 C99.4068447,29.0430097 99.4053883,29.0376699 99.4010194,29.0337864 C98.4655825,28.1687379 97.6078155,27.2575728 96.8078155,26.2779612 C97.5131553,26.9425243 98.1316019,27.6978641 98.9578155,28.228932 C99.927233,28.8536893 101.038883,29.2002913 102.186456,29.2735922 C102.353447,29.2837864 102.285,28.9245631 102.266068,28.844466" id="Fill-13"></path>
                        <path d="M67.2636893,30.9492233 C67.22,30.49 67.001068,30.0696117 66.6263107,29.7895146 C66.4481553,29.6569903 66.254466,29.5764078 66.0413592,29.5196117 C65.6787379,29.4239806 65.5166019,29.4579612 65.2005825,29.1720388 C65.1161165,29.0948544 65.0457282,29.0040777 64.9578641,28.9298058 C64.5505825,28.582233 64.0316505,28.4205825 63.5301942,28.2613592 C63.0612621,28.1123301 62.6515534,27.9429126 62.2641748,27.6764078 C62.2607767,27.6696117 62.2578641,27.663301 62.2534951,27.6560194 C61.8428155,27.0273786 61.5996117,26.4157282 60.804466,26.2987379 C59.9350485,26.1705825 58.9971845,26.0283495 58.096699,25.9938835 C57.4141748,25.321068 57.0821359,24.4652427 56.9500971,23.463301 C56.8491262,22.697767 56.627767,22.051165 56.2059223,21.4793204 C56.8170874,21.1404854 57.2496117,20.5637864 57.162233,19.7565049 C57.1408738,19.5623301 57.062233,19.1764078 56.8758252,19.0603883 C56.6991262,18.9501942 56.4627184,19.0569903 56.2826214,19.1137864 C55.6602913,19.308932 55.1272816,19.6506796 54.62,20.0385437 C53.8908738,19.2798058 52.7942718,18.924466 51.6462136,18.9885437 C50.5505825,19.0497087 49.4826214,19.3278641 48.3835922,19.3681553 C47.3738835,19.405534 46.4112621,19.2662136 45.4331068,19.0880583 C44.3821359,18.0157282 42.935534,17.2875728 41.4418447,17.1982524 C40.8801942,16.4298058 40.351068,15.64 39.7952427,14.8681553 C39.9151456,14.2283495 40.0321359,13.5866019 39.9748544,12.9540777 C39.9316505,12.4759223 39.6403883,12.001165 39.3632039,11.8273786 C39.2505825,11.7574757 39.1486408,11.7128155 39.0598058,11.6836893 L39.0675728,11.6526214 C39.4098058,10.2652427 40.6335922,9.28320388 41.8170874,8.33320388 C42.1583495,8.05941748 42.4806796,7.80067961 42.7865049,7.52883495 C44.3520388,6.13708738 45.7384466,4.67640777 46.9073786,3.18708738 C46.9127184,3.1807767 46.9170874,3.17349515 46.9214563,3.16669903 C46.9729126,3.12398058 47.0112621,3.06475728 47.0326214,2.9938835 C47.2476699,2.28174757 47.3942718,1.52592233 47.4942718,0.616699029 C47.5127184,0.447281553 47.4073786,0.300194175 47.2437864,0.274951456 C47.085534,0.256990291 46.9481553,0.372524272 46.9248544,0.545339806 C46.8331068,1.21669903 46.6743689,1.92252427 46.4253398,2.76572816 C46.4229126,2.77446602 46.4204854,2.78271845 46.4190291,2.79097087 C46.2602913,2.97398058 46.1005825,3.15650485 45.9413592,3.33514563 C45.9005825,3.16815534 45.8884466,2.96135922 45.9064078,2.73320388 C45.9132039,2.6438835 45.9117476,2.47932039 45.8238835,2.38320388 C45.7874757,2.34291262 45.738932,2.31961165 45.6879612,2.31961165 C45.5452427,2.3176699 45.4229126,2.47883495 45.3840777,2.72009709 C45.3132039,3.16087379 45.3166019,3.57106796 45.3942718,3.94048544 C45.3015534,4.04145631 45.2093204,4.14097087 45.1170874,4.23902913 C45.0792233,4.14048544 45.0423301,4.04145631 45.0059223,3.94436893 L44.9991262,3.92640777 C44.9486408,3.79145631 44.8976699,3.65650485 44.8462136,3.52203883 C44.8447573,3.51912621 44.8437864,3.51572816 44.8423301,3.51330097 C44.8685437,3.12980583 44.8884466,2.68029126 44.8505825,2.22980583 C44.8374757,2.07932039 44.7141748,1.97058252 44.57,1.98126214 C44.4306796,1.99194175 44.3263107,2.11087379 44.327767,2.2584466 C44.3316505,2.65941748 44.327767,3.08805825 44.2748544,3.50601942 C44.2729126,3.5215534 44.2719417,3.53708738 44.2724272,3.55262136 C44.2564078,3.60893204 44.2578641,3.6676699 44.2753398,3.72446602 C44.3156311,3.85359223 44.3568932,3.98223301 44.3981553,4.11135922 L44.4117476,4.1531068 C44.4772816,4.35699029 44.5447573,4.56718447 44.6078641,4.77592233 C44.3394175,5.0531068 44.0719417,5.32300971 43.8102913,5.57980583 C43.7442718,4.98708738 43.6481553,4.41330097 43.5248544,3.87106796 C43.4865049,3.70504854 43.3263107,3.6031068 43.1583495,3.63902913 C42.9894175,3.67592233 42.8835922,3.83660194 42.9175728,4.00456311 C43.0656311,4.74339806 43.1481553,5.45941748 43.1695146,6.19194175 C42.8709709,6.47106796 42.5714563,6.74194175 42.2772816,6.99825243 C42.2379612,6.95893204 42.1981553,6.91961165 42.158835,6.88126214 C41.7826214,6.51378641 41.393301,6.13417476 41.3258252,5.63854369 C41.3030097,5.47495146 41.288932,5.31038835 41.2753398,5.15067961 C41.2457282,4.80893204 41.2156311,4.45553398 41.1059223,4.09728155 C41.0632039,3.95699029 40.9214563,3.87737864 40.7763107,3.91330097 C40.6292233,3.94873786 40.5379612,4.08466019 40.5636893,4.23029126 C40.6059223,4.47058252 40.6141748,4.74 40.6224272,5.00067961 C40.6340777,5.38514563 40.6462136,5.78223301 40.7627184,6.14728155 C40.9224272,6.64970874 41.3394175,7.05213592 41.7078641,7.40796117 C41.7219417,7.4215534 41.7360194,7.43514563 41.7500971,7.44873786 C41.6845631,7.5031068 41.6190291,7.55747573 41.5539806,7.61135922 C41.4219417,7.71961165 41.2874757,7.82786408 41.1520388,7.93708738 C40.8534951,8.17786408 40.5457282,8.42640777 40.2452427,8.69097087 C40.1039806,8.58660194 39.9636893,8.4807767 39.8238835,8.37446602 L39.5908738,8.1992233 C39.6059223,7.89436893 39.6335922,7.58563107 39.6578641,7.31087379 C39.6835922,7.02106796 39.7102913,6.72106796 39.7253398,6.42349515 C39.7345631,6.24582524 39.6093204,6.09970874 39.4345631,6.08417476 C39.2636893,6.07203883 39.1185437,6.18174757 39.0923301,6.35165049 C39.0471845,6.64436893 39.0132039,6.94194175 38.9797087,7.23417476 C38.9437864,7.5492233 38.9064078,7.87495146 38.8549515,8.19097087 C38.8360194,8.30893204 38.8738835,8.42203883 38.958835,8.50456311 C38.9719417,8.52106796 38.985534,8.53563107 39.0000971,8.54825243 C39.1331068,8.66524272 39.2675728,8.78126214 39.4020388,8.89728155 C39.5098058,8.99048544 39.6175728,9.08417476 39.7243689,9.17786408 C39.2641748,9.64 38.9204854,10.0895146 38.6787379,10.5463107 C38.5185437,10.4676699 38.358835,10.3909709 38.201068,10.3157282 C37.8233981,10.1366019 37.3976699,9.93368932 37.0034951,9.71135922 C36.9641748,9.61281553 36.9253398,9.51281553 36.8865049,9.41135922 C36.7661165,9.09776699 36.6418447,8.77252427 36.4797087,8.47203883 C36.4073786,8.33854369 36.2374757,8.2768932 36.093301,8.33174757 C35.9564078,8.38417476 35.8821359,8.5268932 35.9170874,8.67106796 C35.9981553,9.00990291 36.1233981,9.34048544 36.2447573,9.66038835 L36.3500971,9.62203883 L36.2452427,9.66184466 C36.2947573,9.79242718 36.3442718,9.92300971 36.3899029,10.0521359 C36.3986408,10.0764078 36.4098058,10.0997087 36.4238835,10.1220388 C36.4578641,10.2186408 36.531165,10.2943689 36.627767,10.3317476 C37.0646602,10.5001942 37.501068,10.7094175 37.9229126,10.9123301 C38.0860194,10.9904854 38.2525243,11.0696117 38.4195146,11.1472816 C38.3753398,11.2807767 38.3374757,11.4200971 38.3064078,11.563301 L38.2976699,11.6050485 C37.5680583,11.6608738 36.9607767,12.0628155 36.1952427,12.2404854 C35.6399029,12.3691262 35.0942718,12.3967961 34.527767,12.4424272 C34.1505825,12.4730097 33.7690291,12.5341748 33.4447573,12.7419417 C32.9248544,13.0749515 32.7146602,13.7569903 33.1098058,14.2783495 C33.412233,14.6773786 33.8806796,14.7419417 34.3602913,14.721068 C35.1971845,15.1220388 35.7899029,16.0205825 36.67,16.3137864 C36.335534,18.6414563 37.2263107,21.24 38.6675728,23.0885437 C37.7743689,24.4739806 35.6641748,24.455534 34.1923301,24.8715534 C32.408835,25.3749515 30.9384466,26.0433981 29.2850485,26.8652427 C29.1020388,26.9608738 28.9049515,27.0798058 28.9408738,27.1827184 C29.2413592,28.0414563 30.0384466,27.8492233 30.6345631,27.5448544 C31.1680583,27.2725243 31.5360194,26.6997087 32.4272816,26.5734951 C32.6670874,26.5395146 32.9258252,26.5472816 33.1583495,26.4802913 C32.535534,26.916699 31.9321359,27.3802913 31.2496117,27.7332039 C30.5471845,28.0967961 29.3661165,28.2385437 29.1204854,29.1113592 C29.0831068,29.2438835 30.1379612,29.558932 30.8020388,29.1734951 C30.8568932,29.1414563 31.0301942,29.0438835 31.0195146,28.9972816 C32.5806796,27.8443689 34.0423301,26.7336893 35.9399029,26.2128155 C37.9437864,25.663301 40.0787379,25.7802913 42.1292233,25.9302913 C44.17,26.0798058 46.2078641,26.321068 48.2573786,26.3205825 C49.2170874,26.3205825 50.1782524,26.2676699 51.127767,26.1278641 C51.7709709,26.0332039 52.4112621,25.8967961 52.9753398,25.5832039 C53.338932,26.5065049 54.3729126,27.0846602 55.2646602,27.3778641 C56.6743689,27.8409709 58.1942718,27.8982524 59.6666019,27.8798058 C59.9306796,28.3278641 60.2782524,28.724466 60.6292233,29.1128155 C61.1287379,29.6657282 61.6321359,30.2215534 62.2015534,30.7040777 C62.8214563,31.2293204 63.5797087,31.5128155 64.2030097,32.021068 C64.7078641,32.432233 65.1675728,32.7001942 65.8073786,32.7157282 C65.8690291,32.7657282 65.9680583,32.763301 66.0054369,32.6997087 C66.0651456,32.6618447 66.0714563,32.5671845 66.0141748,32.5361165 C65.9918447,32.1642718 65.9447573,31.7768932 65.6670874,31.5021359 C65.4549515,31.2919417 65.1685437,31.2181553 64.8976699,31.1152427 C64.5481553,30.9827184 64.2185437,30.8118447 63.9078641,30.6035922 C62.9384466,29.9516505 62.1782524,29.0433981 61.4471845,28.1341748 C61.7350485,28.3904854 62.0845631,28.5531068 62.4384466,28.7176699 C63.0365049,28.9963107 63.5743689,29.3103883 64.0923301,29.7200971 C64.9942718,30.4341748 65.9136893,31.2254369 67.1360194,31.1608738 C67.2530097,31.1550485 67.3005825,31.0273786 67.2636893,30.9492233 L67.2636893,30.9492233 Z" id="Fill-15"></path>
                    </g>
                </g>
            </g>
        </g>
    </g>
</svg>