<?xml version="1.0" encoding="UTF-8"?>
<svg width="1560px" height="70px" viewBox="0 0 1560 70" version="1.1" xmlns="http://www.w3.org/2000/svg" xmlns:xlink="http://www.w3.org/1999/xlink">
    <!-- Generator: Sketch 60.1 (88133) - https://sketch.com -->
    <title>snow</title>
    <desc>Created with Sketch.</desc>
    <g id="diseños" stroke="none" stroke-width="1" fill="none" fill-rule="evenodd">
        <g id="Artboard" transform="translate(-1.000000, 0.000000)" fill-rule="nonzero">
            <g id="promo-bar-navidad">
                <g id="background" transform="translate(1.000000, -43.000000)">
                    <g id="snow" transform="translate(0.000000, 40.000000)">
                        <path d="M862.40469,35 C859.20469,35 859.19219,40 862.40469,40 C865.61719,40 865.61719,35 862.40469,35 Z" id="Path" fill="#FFFFFF"></path>
                        <path d="M901.442814,25 C899.522814,25 899.515314,28 901.442814,28 C903.370314,28 903.370314,25 901.442814,25 Z" id="Path" fill="#C7EBFF"></path>
                        <path d="M932.40469,26 C929.20469,26 929.19219,31 932.40469,31 C935.61719,31 935.61719,26 932.40469,26 Z" id="Path" fill="#FFFFFF"></path>
                        <path d="M781.442814,15 C779.522814,15 779.515314,18 781.442814,18 C783.370314,18 783.370314,15 781.442814,15 Z" id="Path" fill="#FFFFFF"></path>
                        <path d="M711.442814,35 C709.522814,35 709.515314,38 711.442814,38 C713.370314,38 713.370314,35 711.442814,35 Z" id="Path" fill="#FFFFFF"></path>
                        <path d="M802.442814,38 C800.522814,38 800.515314,41 802.442814,41 C804.370314,41 804.370314,38 802.442814,38 Z" id="Path" fill="#C7EBFF"></path>
                        <path d="M752.40469,55 C749.20469,55 749.19219,60 752.40469,60 C755.61719,60 755.61719,55 752.40469,55 Z" id="Path" fill="#FFFFFF"></path>
                        <path d="M662.885628,55 C659.045628,55 659.030628,61 662.885628,61 C666.740628,61 666.740628,55 662.885628,55 Z" id="Path" fill="#C7EBFF"></path>
                        <path d="M631.442814,15 C629.522814,15 629.515314,18 631.442814,18 C633.370314,18 633.370314,15 631.442814,15 Z" id="Path" fill="#FFFFFF"></path>
                        <path d="M532.40469,35 C529.20469,35 529.19219,40 532.40469,40 C535.61719,40 535.61719,35 532.40469,35 Z" id="Path" fill="#C7EBFF"></path>
                        <path d="M572.885628,25 C569.045628,25 569.030628,31 572.885628,31 C576.740628,31 576.740628,25 572.885628,25 Z" id="Path" fill="#FFFFFF"></path>
                        <path d="M519.442814,54 C517.522814,54 517.515314,57 519.442814,57 C521.370314,57 521.370314,54 519.442814,54 Z" id="Path" fill="#FFFFFF"></path>
                        <path d="M452.40469,15 C449.20469,15 449.19219,20 452.40469,20 C455.61719,20 455.61719,15 452.40469,15 Z" id="Path" fill="#FFFFFF"></path>
                        <path d="M382.885628,35 C379.045628,35 379.030628,41 382.885628,41 C386.740628,41 386.740628,35 382.885628,35 Z" id="Path" fill="#FFFFFF"></path>
                        <path d="M472.442814,38 C470.522814,38 470.515314,41 472.442814,41 C474.370314,41 474.370314,38 472.442814,38 Z" id="Path" fill="#C7EBFF"></path>
                        <path d="M421.442814,55 C419.522814,55 419.515314,58 421.442814,58 C423.370314,58 423.370314,55 421.442814,55 Z" id="Path" fill="#FFFFFF"></path>
                        <path d="M332.885628,55 C329.045628,55 329.030628,61 332.885628,61 C336.740628,61 336.740628,55 332.885628,55 Z" id="Path" fill="#C7EBFF"></path>
                        <path d="M302.885628,15 C299.045628,15 299.030628,21 302.885628,21 C306.740628,21 306.740628,15 302.885628,15 Z" id="Path" fill="#FFFFFF"></path>
                        <path d="M1371.44281,35 C1369.52281,35 1369.51531,38 1371.44281,38 C1373.37031,38 1373.37031,35 1371.44281,35 Z" id="Path" fill="#FFFFFF"></path>
                        <path d="M1411.44281,55 C1409.52281,55 1409.51531,58 1411.44281,58 C1413.37031,58 1413.37031,55 1411.44281,55 Z" id="Path" fill="#FFFFFF"></path>
                        <path d="M1177.40469,14 C1174.20469,14 1174.19219,19 1177.40469,19 C1180.61719,19 1180.61719,14 1177.40469,14 Z" id="Path" fill="#FFFFFF"></path>
                        <path d="M1012.88563,55 C1009.04563,55 1009.03063,61 1012.88563,61 C1016.74063,61 1016.74063,55 1012.88563,55 Z" id="Path" fill="#FFFFFF"></path>
                        <path d="M1142.88563,15 C1139.04563,15 1139.03063,21 1142.88563,21 C1146.74063,21 1146.74063,15 1142.88563,15 Z" id="Path" fill="#FFFFFF"></path>
                        <path d="M1041.44281,35 C1039.52281,35 1039.51531,38 1041.44281,38 C1043.37031,38 1043.37031,35 1041.44281,35 Z" id="Path" fill="#C7EBFF"></path>
                        <path d="M1082.88563,25 C1079.04563,25 1079.03063,31 1082.88563,31 C1086.74063,31 1086.74063,25 1082.88563,25 Z" id="Path" fill="#FFFFFF"></path>
                        <path d="M1081.44281,55 C1079.52281,55 1079.51531,58 1081.44281,58 C1083.37031,58 1083.37031,55 1081.44281,55 Z" id="Path" fill="#FFFFFF"></path>
                        <path d="M962.40469,15 C959.20469,15 959.19219,20 962.40469,20 C965.61719,20 965.61719,15 962.40469,15 Z" id="Path" fill="#FFFFFF"></path>
                        <path d="M405.442814,9 C403.522814,9 403.515314,12 405.442814,12 C407.370314,12 407.370314,9 405.442814,9 Z" id="Path" fill="#FFFFFF"></path>
                        <path d="M982.442814,38 C980.522814,38 980.515314,41 982.442814,41 C984.370314,41 984.370314,38 982.442814,38 Z" id="Path" fill="#C7EBFF"></path>
                        <path d="M932.885628,55 C929.045628,55 929.030628,61 932.885628,61 C936.740628,61 936.740628,55 932.885628,55 Z" id="Path" fill="#FFFFFF"></path>
                        <path d="M796.442814,60 C794.522814,60 794.515314,63 796.442814,63 C798.370314,63 798.370314,60 796.442814,60 Z" id="Path" fill="#FFFFFF"></path>
                        <path d="M472.442814,38 C470.522814,38 470.515314,41 472.442814,41 C474.370314,41 474.370314,38 472.442814,38 Z" id="Path" fill="#C7EBFF"></path>
                        <path d="M421.442814,55 C419.522814,55 419.515314,58 421.442814,58 C423.370314,58 423.370314,55 421.442814,55 Z" id="Path" fill="#FFFFFF"></path>
                        <path d="M332.885628,55 C329.045628,55 329.030628,61 332.885628,61 C336.740628,61 336.740628,55 332.885628,55 Z" id="Path" fill="#C7EBFF"></path>
                        <path d="M301.442814,15 C299.522814,15 299.515314,18 301.442814,18 C303.370314,18 303.370314,15 301.442814,15 Z" id="Path" fill="#FFFFFF"></path>
                        <path d="M202.885628,35 C199.045628,35 199.030628,41 202.885628,41 C206.740628,41 206.740628,35 202.885628,35 Z" id="Path" fill="#C7EBFF"></path>
                        <path d="M242.40469,25 C239.20469,25 239.19219,30 242.40469,30 C245.61719,30 245.61719,25 242.40469,25 Z" id="Path" fill="#FFFFFF"></path>
                        <path d="M242.885628,55 C239.045628,55 239.030628,61 242.885628,61 C246.740628,61 246.740628,55 242.885628,55 Z" id="Path" fill="#FFFFFF"></path>
                        <path d="M22.8856277,16 C19.0456277,16 19.0306277,22 22.8856277,22 C26.7406277,22 26.7406277,16 22.8856277,16 Z" id="Path" fill="#FFFFFF"></path>
                        <path d="M121.442814,15 C119.522814,15 119.515314,18 121.442814,18 C123.370314,18 123.370314,15 121.442814,15 Z" id="Path" fill="#FFFFFF"></path>
                        <path d="M142.442814,38 C140.522814,38 140.515314,41 142.442814,41 C144.370314,41 144.370314,38 142.442814,38 Z" id="Path" fill="#C7EBFF"></path>
                        <path d="M91.4428139,55 C89.5228139,55 89.5153139,58 91.4428139,58 C93.3703139,58 93.3703139,55 91.4428139,55 Z" id="Path" fill="#FFFFFF"></path>
                        <path d="M1.44281387,55 C-0.477186129,55 -0.484686129,58 1.44281387,58 C3.37031387,58 3.37031387,55 1.44281387,55 Z" id="Path" fill="#C7EBFF"></path>
                        <path d="M1417.44281,9 C1415.52281,9 1415.51531,12 1417.44281,12 C1419.37031,12 1419.37031,9 1417.44281,9 Z" id="Path" fill="#C7EBFF"></path>
                        <path d="M1556.88563,49 C1553.04563,49 1553.03063,55 1556.88563,55 C1560.74063,55 1560.74063,49 1556.88563,49 Z" id="Path" fill="#FFFFFF"></path>
                        <path d="M1068.40469,0 C1065.20469,0 1065.19219,5 1068.40469,5 C1071.61719,5 1071.61719,0 1068.40469,0 Z" id="Path" fill="#C7EBFF"></path>
                        <path d="M1497.88563,31 C1494.04563,31 1494.03063,37 1497.88563,37 C1501.74063,37 1501.74063,31 1497.88563,31 Z" id="Path" fill="#FFFFFF"></path>
                        <path d="M251.442814,18 C249.522814,18 249.515314,21 251.442814,21 C253.370314,21 253.370314,18 251.442814,18 Z" id="Path" fill="#FFFFFF"></path>
                        <path d="M272.442814,41 C270.522814,41 270.515314,44 272.442814,44 C274.370314,44 274.370314,41 272.442814,41 Z" id="Path" fill="#C7EBFF"></path>
                        <path d="M221.442814,58 C219.522814,58 219.515314,61 221.442814,61 C223.370314,61 223.370314,58 221.442814,58 Z" id="Path" fill="#FFFFFF"></path>
                        <path d="M131.442814,58 C129.522814,58 129.515314,61 131.442814,61 C133.370314,61 133.370314,58 131.442814,58 Z" id="Path" fill="#C7EBFF"></path>
                        <path d="M1247.88563,69 C1244.04563,69 1244.03063,75 1247.88563,75 C1251.74063,75 1251.74063,69 1247.88563,69 Z" id="Path" fill="#FFFFFF"></path>
                        <path d="M1198.40469,3 C1195.20469,3 1195.19219,8 1198.40469,8 C1201.61719,8 1201.61719,3 1198.40469,3 Z" id="Path" fill="#C7EBFF"></path>
                    </g>
                </g>
            </g>
        </g>
    </g>
</svg>